{"title":"Awful Nice 2013 WEBrip XVID AC3 ACAB","uid":9575136,"size":1405058022,"categoryP":"video","categoryS":"movies","magnet":"?xt=urn:btih:c5e976b0c3d04d0cb540950d1004f1d940ff34ce&amp;dn=Awful+Nice+2013+WEBrip+XVID+AC3+ACAB&amp;tr=udp%3A%2F%2Ftracker.openbittorrent.com%3A80&amp;tr=udp%3A%2F%2Fopen.demonii.com%3A1337&amp;tr=udp%3A%2F%2Ftracker.coppersurfer.tk%3A6969&amp;tr=udp%3A%2F%2Fexodus.desync.com%3A6969","seeders":4,"leechers":3,"uploader":"xxxlavalxxx","files":-1,"time":1391694410,"description":" &lt;a href=&quot;\nhttp://www.imdb.com/title/tt1414449/&quot; rel=&quot;nofollow&quot; target=&quot;_NEW&quot;&gt;\nhttp://www.imdb.com/title/tt1414449/&lt;/a&gt;\n\n\nWhen Jim - a disenchanted yet highly popular college professor - learns of his fathers death, he must track down his deadbeat brother Dave and deliver him to the funeral. Upon arrival, they both learn that they've each inherited one half of the family's vacation home in Branson, Missouri, and in order to sell the house - which they both badly need the money from - they'll need to travel down to Branson, and the ensuing trip both fixes their house, as well as their relationship.\n\nDirector: Todd Sklar\nWriters: Alex Rennie, Todd Sklar\nStars: Christopher Meloni, Laura Ramsey, Henry Zebrowski \nGenres: Comedy\nCountry: USA\nLanguage: English\n\n\nFormat                                   : AVI\nFormat/Info                              : Audio Video Interleave\nFile size                                : 1.30 GiB\nDuration                                 : 1h 32mn\nOverall bit rate                         : 2 001 Kbps\nWriting library                          : VirtualDub build 30091/release\n\nVideo\nID                                       : 0\nFormat                                   : MPEG-4 Visual\nFormat profile                           : Advanced Simple@L5\nFormat settings, BVOP                    : 2\nFormat settings, QPel                    : No\nFormat settings, GMC                     : No warppoints\nFormat settings, Matrix                  : Default (H.263)\nMuxing mode                              : Packed bitstream\nCodec ID                                 : XVID\nCodec ID/Hint                            : XviD\nDuration                                 : 1h 32mn\nBit rate                                 : 1 799 Kbps\nWidth                                    : 720 pixels\nHeight                                   : 400 pixels\nDisplay aspect ratio                     : 16:9\nFrame rate                               : 23.976 fps\nColor space                              : YUV\nChroma subsampling                       : 4:2:0\nBit depth                                : 8 bits\nScan type                                : Progressive\nCompression mode                         : Lossy\nBits/(Pixel*Frame)                       : 0.261\nStream size                              : 1.17 GiB (90%)\nWriting library                          : XviD 1.2.1 (UTC 2008-12-04)\n\nAudio\nID                                       : 1\nFormat                                   : AC-3\nFormat/Info                              : Audio Coding 3\nMode extension                           : CM (complete main)\nFormat settings, Endianness              : Big\nCodec ID                                 : 2000\nDuration                                 : 1h 32mn\nBit rate mode                            : Constant\nBit rate                                 : 192 Kbps\nChannel count                            : 2 channels\nChannel positions                        : Front: L R\nSampling rate                            : 48.0 KHz\nBit depth                                : 16 bits\nCompression mode                         : Lossy\nStream size                              : 128 MiB (10%)\n\n\n\nscreens\n &lt;a href=&quot;\nhttp://i.imgur.com/VHZL25G.png&quot; rel=&quot;nofollow&quot; target=&quot;_NEW&quot;&gt;\nhttp://i.imgur.com/VHZL25G.png&lt;/a&gt; &lt;a href=&quot;\nhttp://i.imgur.com/0vJxHTn.png&quot; rel=&quot;nofollow&quot; target=&quot;_NEW&quot;&gt;\nhttp://i.imgur.com/0vJxHTn.png&lt;/a&gt; &lt;a href=&quot;\nhttp://i.imgur.com/NRHeEDD.png&quot; rel=&quot;nofollow&quot; target=&quot;_NEW&quot;&gt;\nhttp://i.imgur.com/NRHeEDD.png&lt;/a&gt; &lt;a href=&quot;\nhttp://i.imgur.com/jM8cpuX.png&quot; rel=&quot;nofollow&quot; target=&quot;_NEW&quot;&gt;\nhttp://i.imgur.com/jM8cpuX.png&lt;/a&gt;","torrent":{"xt":"urn:btih:c5e976b0c3d04d0cb540950d1004f1d940ff34ce","amp;dn":"Awful+Nice+2013+WEBrip+XVID+AC3+ACAB","amp;tr":["udp%3A%2F%2Ftracker.openbittorrent.com%3A80","udp%3A%2F%2Fopen.demonii.com%3A1337","udp%3A%2F%2Ftracker.coppersurfer.tk%3A6969","udp%3A%2F%2Fexodus.desync.com%3A6969"],"infoHash":"c5e976b0c3d04d0cb540950d1004f1d940ff34ce","infoHashBuffer":{"type":"Buffer","data":[197,233,118,176,195,208,77,12,181,64,149,13,16,4,241,217,64,255,52,206]},"announce":[],"urlList":[]}}